<mxfile host="app.diagrams.net" modified="2023-10-16T13:15:22.176Z" agent="Mozilla/5.0 (Macintosh; Intel Mac OS X 10_15_7) AppleWebKit/537.36 (KHTML, like Gecko) Chrome/117.0.0.0 Safari/537.36" etag="kHJKMYyMEkXWCpx0y3Q8" version="22.0.4" type="github">
  <diagram name="Page-1" id="74b105a0-9070-1c63-61bc-23e55f88626e">
    <mxGraphModel dx="993" dy="710" grid="1" gridSize="10" guides="1" tooltips="1" connect="1" arrows="1" fold="1" page="1" pageScale="1.5" pageWidth="1169" pageHeight="826" background="none" math="0" shadow="0">
      <root>
        <mxCell id="0" style=";html=1;" />
        <mxCell id="1" style=";html=1;" parent="0" />
        <mxCell id="FhhrChK7B-d51IeMpH7j-23" value="" style="edgeStyle=orthogonalEdgeStyle;rounded=0;orthogonalLoop=1;jettySize=auto;html=1;" edge="1" parent="1" source="FhhrChK7B-d51IeMpH7j-21" target="FhhrChK7B-d51IeMpH7j-22">
          <mxGeometry relative="1" as="geometry" />
        </mxCell>
        <mxCell id="FhhrChK7B-d51IeMpH7j-21" value="User login to website" style="rounded=1;whiteSpace=wrap;html=1;absoluteArcSize=1;arcSize=14;strokeWidth=2;" vertex="1" parent="1">
          <mxGeometry x="50" y="30" width="120" height="60" as="geometry" />
        </mxCell>
        <mxCell id="FhhrChK7B-d51IeMpH7j-25" value="" style="edgeStyle=orthogonalEdgeStyle;rounded=0;orthogonalLoop=1;jettySize=auto;html=1;" edge="1" parent="1" source="FhhrChK7B-d51IeMpH7j-22" target="FhhrChK7B-d51IeMpH7j-24">
          <mxGeometry relative="1" as="geometry" />
        </mxCell>
        <mxCell id="FhhrChK7B-d51IeMpH7j-22" value="Select options for VM (OS, flavour etc)" style="whiteSpace=wrap;html=1;rounded=1;arcSize=14;strokeWidth=2;" vertex="1" parent="1">
          <mxGeometry x="250" y="30" width="120" height="60" as="geometry" />
        </mxCell>
        <mxCell id="FhhrChK7B-d51IeMpH7j-27" value="" style="edgeStyle=orthogonalEdgeStyle;rounded=0;orthogonalLoop=1;jettySize=auto;html=1;" edge="1" parent="1" source="FhhrChK7B-d51IeMpH7j-24" target="FhhrChK7B-d51IeMpH7j-26">
          <mxGeometry relative="1" as="geometry" />
        </mxCell>
        <mxCell id="FhhrChK7B-d51IeMpH7j-24" value="Submit to create the VM" style="whiteSpace=wrap;html=1;rounded=1;arcSize=14;strokeWidth=2;" vertex="1" parent="1">
          <mxGeometry x="450" y="30" width="120" height="60" as="geometry" />
        </mxCell>
        <mxCell id="FhhrChK7B-d51IeMpH7j-29" value="" style="edgeStyle=orthogonalEdgeStyle;rounded=0;orthogonalLoop=1;jettySize=auto;html=1;" edge="1" parent="1" source="FhhrChK7B-d51IeMpH7j-26" target="FhhrChK7B-d51IeMpH7j-28">
          <mxGeometry relative="1" as="geometry" />
        </mxCell>
        <mxCell id="FhhrChK7B-d51IeMpH7j-26" value="Request is sent to a queue" style="whiteSpace=wrap;html=1;rounded=1;arcSize=14;strokeWidth=2;" vertex="1" parent="1">
          <mxGeometry x="650" y="30" width="120" height="60" as="geometry" />
        </mxCell>
        <mxCell id="FhhrChK7B-d51IeMpH7j-31" value="" style="edgeStyle=orthogonalEdgeStyle;rounded=0;orthogonalLoop=1;jettySize=auto;html=1;" edge="1" parent="1" source="FhhrChK7B-d51IeMpH7j-28" target="FhhrChK7B-d51IeMpH7j-30">
          <mxGeometry relative="1" as="geometry" />
        </mxCell>
        <mxCell id="FhhrChK7B-d51IeMpH7j-28" value="Request is picked" style="whiteSpace=wrap;html=1;rounded=1;arcSize=14;strokeWidth=2;" vertex="1" parent="1">
          <mxGeometry x="650" y="170" width="120" height="60" as="geometry" />
        </mxCell>
        <mxCell id="FhhrChK7B-d51IeMpH7j-33" value="" style="edgeStyle=orthogonalEdgeStyle;rounded=0;orthogonalLoop=1;jettySize=auto;html=1;" edge="1" parent="1" source="FhhrChK7B-d51IeMpH7j-30" target="FhhrChK7B-d51IeMpH7j-32">
          <mxGeometry relative="1" as="geometry" />
        </mxCell>
        <mxCell id="FhhrChK7B-d51IeMpH7j-30" value="VM is provisioned" style="whiteSpace=wrap;html=1;rounded=1;arcSize=14;strokeWidth=2;" vertex="1" parent="1">
          <mxGeometry x="450" y="170" width="120" height="60" as="geometry" />
        </mxCell>
        <mxCell id="FhhrChK7B-d51IeMpH7j-35" value="" style="edgeStyle=orthogonalEdgeStyle;rounded=0;orthogonalLoop=1;jettySize=auto;html=1;" edge="1" parent="1" source="FhhrChK7B-d51IeMpH7j-32" target="FhhrChK7B-d51IeMpH7j-34">
          <mxGeometry relative="1" as="geometry" />
        </mxCell>
        <mxCell id="FhhrChK7B-d51IeMpH7j-32" value="User is updated with progress" style="whiteSpace=wrap;html=1;rounded=1;arcSize=14;strokeWidth=2;" vertex="1" parent="1">
          <mxGeometry x="250" y="170" width="120" height="60" as="geometry" />
        </mxCell>
        <mxCell id="FhhrChK7B-d51IeMpH7j-34" value="VM details are presented to user" style="whiteSpace=wrap;html=1;rounded=1;arcSize=14;strokeWidth=2;" vertex="1" parent="1">
          <mxGeometry x="50" y="170" width="120" height="60" as="geometry" />
        </mxCell>
      </root>
    </mxGraphModel>
  </diagram>
</mxfile>
